<svg xmlns="http://www.w3.org/2000/svg" version="1.1" xmlns:xlink="http://www.w3.org/1999/xlink" xmlns:svgjs="http://svgjs.dev/svgjs" width="1500" height="636" viewBox="0 0 1500 636"><g transform="matrix(1,0,0,1,-0.9090909090909918,-0.7608468653648401)"><svg viewBox="0 0 396 168" data-background-color="#000000" preserveAspectRatio="xMidYMid meet" height="636" width="1500" xmlns="http://www.w3.org/2000/svg" xmlns:xlink="http://www.w3.org/1999/xlink"><g id="tight-bounds" transform="matrix(1,0,0,1,0.2400000000000091,0.20097841726618526)"><svg viewBox="0 0 395.52 167.59804316546763" height="167.59804316546763" width="395.52"><g><svg viewBox="0 0 395.52 167.59804316546763" height="167.59804316546763" width="395.52"><g><svg viewBox="0 0 395.52 167.59804316546763" height="167.59804316546763" width="395.52"><g id="textblocktransform"><svg viewBox="0 0 395.52 167.59804316546763" height="167.59804316546763" width="395.52" id="textblock"><g><svg viewBox="0 0 395.52 167.59804316546763" height="167.59804316546763" width="395.52"><g transform="matrix(1,0,0,1,0,0)"><svg width="395.52" viewBox="3.5 -29.45 69.5 29.45" height="167.59804316546763" data-palette-color="url(#87e885af-d178-4a0b-bfc6-4692840a155c)"></svg></g></svg></g></svg></g></svg></g><g></g></svg></g><defs></defs><mask id="d5a7ae67-c17f-49ae-be25-f1644116653b"><g id="SvgjsG1777"><svg viewBox="0 0 395.52 167.59804316546763" height="167.59804316546763" width="395.52"><g><svg viewBox="0 0 395.52 167.59804316546763" height="167.59804316546763" width="395.52"><g><svg viewBox="0 0 395.52 167.59804316546763" height="167.59804316546763" width="395.52"><g id="SvgjsG1776"><svg viewBox="0 0 395.52 167.59804316546763" height="167.59804316546763" width="395.52" id="SvgjsSvg1775"><g><svg viewBox="0 0 395.52 167.59804316546763" height="167.59804316546763" width="395.52"><g transform="matrix(1,0,0,1,0,0)"><svg width="395.52" viewBox="3.5 -29.45 69.5 29.45" height="167.59804316546763" data-palette-color="url(#87e885af-d178-4a0b-bfc6-4692840a155c)"><path d="M26.55 0L12.65 0Q9.1 0 7.1-1 5.1-2 4.3-4 3.5-6 3.5-8.95L3.5-8.95 3.5-20.1Q3.5-24.9 5.65-27.18 7.8-29.45 12.65-29.45L12.65-29.45 27.7-29.45Q31.15-29.45 32.98-29.08 34.8-28.7 34.8-28.3L34.8-28.3 33.8-24.15Q32.95-24.3 28.78-24.48 24.6-24.65 16.65-24.65L16.65-24.65 14.1-24.65Q10.1-24.65 10.1-21.1L10.1-21.1 10.1-8.35Q10.1-6.65 10.98-5.73 11.85-4.8 14.1-4.8L14.1-4.8 16.15-4.8Q24.45-4.8 29.03-4.98 33.6-5.15 34.7-5.35L34.7-5.35 36.75-2.05Q36.75-1.8 35.93-1.3 35.1-0.8 32.9-0.4 30.7 0 26.55 0L26.55 0ZM48.85 0L42.25 0 42.25-25.4 41.75-29.45 63.9-29.45Q67.1-29.45 68.92-28.6 70.75-27.75 71.62-26.38 72.5-25 72.75-23.45 73-21.9 73-20.5L73-20.5 73-17.55Q73-16.4 72.65-14.98 72.3-13.55 71.35-12.23 70.4-10.9 68.6-10.03 66.8-9.15 63.9-9.15L63.9-9.15 58.8-9.15Q55.65-9.15 52.92-9.3 50.2-9.45 48.85-9.55L48.85-9.55 48.85 0ZM48.85-24.65L48.85-13.95 62.45-13.95Q64.7-13.95 65.55-15.05 66.4-16.15 66.4-17.7L66.4-17.7 66.4-20.85Q66.4-22.45 65.55-23.55 64.7-24.65 62.5-24.65L62.5-24.65 48.85-24.65Z" opacity="1" transform="matrix(1,0,0,1,0,0)" fill="white" class="wordmark-text-0" id="SvgjsPath1774"></path></svg></g></svg></g></svg></g></svg></g><g></g></svg></g><defs><mask></mask></defs></svg><rect width="395.52" height="167.59804316546763" fill="black" stroke="none" visibility="hidden"></rect></g></mask><linearGradient x1="0.054" x2="0.941" y1="0.5" y2="0.5" id="87e885af-d178-4a0b-bfc6-4692840a155c"><stop stop-color="#8c8c8c" offset="0"></stop><stop stop-color="#e3e4e5" offset="0.498"></stop><stop stop-color="#8c8c8c" offset="1"></stop></linearGradient><rect width="395.52" height="167.59804316546763" fill="url(#87e885af-d178-4a0b-bfc6-4692840a155c)" mask="url(#d5a7ae67-c17f-49ae-be25-f1644116653b)" data-fill-palette-color="primary"></rect></svg><rect width="395.52" height="167.59804316546763" fill="none" stroke="none" visibility="hidden"></rect></g></svg></g></svg>